<?xml version="1.0" encoding="utf-8"?>
<!-- Generator: Adobe Illustrator 27.0.0, SVG Export Plug-In . SVG Version: 6.00 Build 0)  -->
<svg version="1.1" id="图层_1" xmlns="http://www.w3.org/2000/svg" xmlns:xlink="http://www.w3.org/1999/xlink" x="0px" y="0px"
	 viewBox="0 0 32 32" style="enable-background:new 0 0 32 32;" xml:space="preserve">
<style type="text/css">
	.st0{display:none;fill:#FFFFFF;}
	.st1{fill:#231815;}
</style>
<circle class="st0" cx="16" cy="16.1" r="11.1"/>
<path class="st0" d="M16,4C9.4,4,4,9.4,4,16s5.4,12,12,12s12-5.4,12-12S22.6,4,16,4z M16,26.4c-5.7,0-10.4-4.7-10.4-10.4
	S10.3,5.6,16,5.6S26.4,10.3,26.4,16S21.7,26.4,16,26.4z"/>
<path class="st1" d="M16.9,13c-0.2-0.2-0.5-0.4-0.9-0.4s-0.6,0.1-0.9,0.4L10,18c-0.3,0.3-0.3,0.8,0,1.1c0.3,0.3,0.8,0.3,1.1,0
	l4.8-4.8l4.8,4.8c0.2,0.2,0.4,0.2,0.6,0.2s0.4-0.1,0.6-0.2c0.3-0.3,0.3-0.8,0-1.1L16.9,13z"/>
</svg>
